<?xml version="1.0" standalone="no"?>
<!DOCTYPE svg PUBLIC "-//W3C//DTD SVG 20010904//EN"
 "http://www.w3.org/TR/2001/REC-SVG-20010904/DTD/svg10.dtd">
<svg version="1.0" xmlns="http://www.w3.org/2000/svg"
 width="1024.000000pt" height="1024.000000pt" viewBox="0 0 1024.000000 1024.000000"
 preserveAspectRatio="xMidYMid meet">

<g transform="translate(0.000000,1024.000000) scale(0.100000,-0.100000)"
fill="#000000" stroke="none">
<path d="M4925 8344 c-93 -6 -208 -22 -349 -50 -414 -82 -809 -253 -1160 -503
-222 -157 -325 -252 -495 -456 -353 -423 -555 -828 -667 -1338 -101 -461 -94
-789 27 -1269 53 -211 173 -515 273 -693 117 -209 327 -484 521 -684 199 -205
477 -407 750 -543 145 -73 409 -174 555 -213 346 -92 708 -118 1052 -75 204
26 236 32 435 86 329 89 617 224 883 414 324 232 573 489 795 824 238 359 370
709 456 1211 29 170 33 211 33 390 1 256 -31 457 -120 759 -142 487 -424 958
-781 1306 -242 236 -436 375 -723 519 -346 172 -601 254 -923 295 -118 16
-448 27 -562 20z m583 -153 c121 -19 320 -64 412 -92 189 -60 472 -191 636
-296 407 -260 677 -541 956 -993 146 -236 284 -607 353 -945 73 -363 52 -695
-75 -1180 -118 -447 -369 -869 -734 -1230 -208 -206 -322 -296 -551 -435 -146
-89 -220 -125 -406 -198 -440 -174 -910 -228 -1384 -161 -77 11 -178 29 -225
40 -464 108 -982 398 -1314 734 -339 343 -569 707 -715 1130 -33 97 -91 335
-115 477 -21 118 -39 424 -31 523 24 317 124 705 259 1008 136 304 467 750
706 949 302 253 550 399 895 528 221 82 460 138 685 159 157 15 496 6 648 -18z"/>
<path d="M4900 8114 c-248 -22 -466 -65 -634 -124 -100 -36 -326 -135 -421
-186 -171 -91 -416 -267 -593 -427 -215 -194 -535 -664 -635 -932 -14 -38 -36
-94 -48 -122 -13 -29 -21 -55 -18 -58 3 -2 192 -5 420 -5 l414 -1 36 83 c103
239 289 465 549 667 139 108 202 148 335 209 362 166 704 214 1107 157 145
-21 387 -96 503 -156 280 -145 573 -389 734 -612 65 -90 150 -244 170 -307
l11 -36 415 1 c228 0 415 3 415 6 0 22 -113 273 -174 387 -185 347 -370 584
-631 811 -377 329 -887 565 -1350 626 -114 15 -509 28 -605 19z m-290 -129 c0
-27 -72 -95 -107 -101 -51 -10 -42 16 23 70 58 48 84 57 84 31z m759 -96 c20
-16 56 -44 80 -62 25 -18 56 -52 71 -76 14 -25 30 -46 36 -48 6 -2 18 32 28
81 16 73 21 85 41 90 28 7 55 -2 55 -18 0 -21 -30 -228 -41 -288 -7 -32 -16
-58 -21 -58 -22 0 -49 23 -79 68 -52 77 -60 80 -85 30 l-21 -42 -23 43 c-24
49 -108 143 -120 136 -4 -3 -11 -35 -15 -72 -10 -92 -10 -93 -62 -93 l-45 0 7
58 c5 47 38 187 61 264 11 38 81 31 133 -13z m-455 -10 c31 -22 63 -38 71 -35
26 9 46 -48 43 -117 l-3 -62 -50 0 -49 0 -11 42 c-14 58 -21 60 -16 6 4 -51
-16 -123 -34 -123 -6 0 -22 21 -34 48 -19 37 -25 69 -29 151 -4 93 -3 106 14
118 27 19 35 17 98 -28z m-350 -46 c33 -109 76 -297 69 -303 -4 -5 -23 -10
-42 -12 l-34 -3 -14 60 c-8 33 -27 103 -43 156 -17 53 -30 99 -30 102 0 3 15
8 33 10 17 2 37 5 44 5 6 1 14 -6 17 -15z m1625 -161 l56 -57 -30 -27 -31 -26
-41 39 c-47 44 -91 51 -143 24 -36 -19 -50 -43 -50 -88 0 -28 8 -42 37 -67 32
-29 41 -32 78 -26 42 5 57 -2 79 -41 9 -17 -58 -45 -106 -45 -88 1 -162 82
-175 192 -5 39 -1 56 17 87 39 66 91 91 189 92 l64 1 56 -58z m-2064 -102 c32
-63 59 -116 60 -118 4 -5 133 56 139 67 13 20 23 12 39 -31 9 -23 16 -42 14
-44 -1 -1 -40 -21 -87 -44 -47 -23 -98 -51 -113 -62 -16 -11 -31 -18 -34 -15
-3 3 -37 72 -75 154 -39 81 -75 154 -82 162 -7 9 -7 16 -1 18 6 2 24 12 40 22
17 10 33 16 36 12 4 -3 33 -58 64 -121z m-344 -109 c23 -18 23 -20 6 -39 -10
-11 -29 -19 -43 -19 -34 0 -82 -49 -90 -90 -8 -44 12 -90 47 -108 63 -33 122
-8 159 66 11 21 24 39 28 39 5 0 21 -13 37 -30 l28 -29 -29 -48 c-87 -141
-273 -148 -341 -13 -42 83 -21 190 49 243 64 50 112 58 149 28z m2799 -56 c35
-18 34 -14 15 -130 -23 -130 -57 -265 -67 -265 -5 0 -23 7 -40 16 -26 14 -30
20 -26 51 4 31 0 38 -31 61 -20 14 -49 37 -65 51 l-28 26 -15 -22 -15 -23 -30
25 c-16 14 -34 25 -39 25 -5 0 -9 6 -9 14 0 8 60 45 143 86 78 39 149 78 157
86 18 17 15 17 50 -1z m-3337 -596 c47 -24 69 -77 51 -123 -9 -24 -71 -58 -93
-51 -10 3 -31 17 -45 32 -36 35 -35 87 1 125 29 30 52 35 86 17z m3816 -16
c45 -42 45 -86 2 -132 -36 -39 -62 -39 -103 -2 -43 38 -44 88 -3 131 36 37 66
38 104 3z"/>
<path d="M6473 7285 c-24 -13 -49 -26 -55 -28 -12 -5 4 -22 59 -67 9 -7 15 0
22 27 15 63 22 93 19 92 -2 0 -22 -11 -45 -24z"/>
<path d="M5010 6963 l0 -103 -94 0 -94 0 1 -100 1 -100 93 0 93 0 0 -100 0
-100 95 0 94 0 -6 101 -6 102 97 -4 97 -4 2 96 2 97 -44 6 c-24 3 -69 6 -100
6 l-57 0 8 87 c4 48 10 93 12 99 4 9 -21 14 -95 16 l-99 3 0 -102z"/>
<path d="M5824 6722 c-6 -4 -14 -17 -18 -29 -7 -22 3 -35 59 -77 19 -15 19
-15 -8 -16 -16 0 -37 5 -48 10 -28 15 -24 -5 6 -28 29 -23 59 -19 93 11 34 32
28 53 -20 69 -58 20 -64 43 -10 35 39 -5 41 -4 31 14 -10 19 -62 26 -85 11z"/>
<path d="M5985 6690 c-4 -22 -4 -58 0 -80 7 -39 7 -40 50 -40 58 0 74 7 68 31
-5 18 -8 19 -63 5 -6 -1 -10 9 -10 23 0 6 14 11 32 13 49 5 48 28 -1 28 -31 0
-41 4 -41 16 0 12 9 15 43 12 32 -2 42 1 42 12 0 11 -15 16 -57 18 l-56 3 -7
-41z"/>
<path d="M4112 6708 c-6 -6 -12 -36 -12 -64 0 -43 4 -56 22 -68 29 -20 41 -20
68 2 18 15 21 24 15 50 -5 24 -12 32 -28 32 -16 0 -18 -3 -9 -12 19 -19 15
-48 -8 -48 -28 0 -42 32 -30 65 9 24 15 27 46 23 27 -3 34 -1 32 11 -4 20 -78
27 -96 9z"/>
<path d="M4291 6707 c-17 -21 -5 -25 42 -16 23 4 45 8 50 9 4 0 7 5 7 10 0 15
-86 12 -99 -3z"/>
<path d="M4462 6653 c3 -64 19 -90 26 -43 3 17 6 19 18 9 8 -6 14 -18 14 -25
0 -9 11 -14 30 -14 27 0 30 2 20 19 -5 11 -7 27 -4 35 17 44 -24 86 -82 86
-24 0 -25 -1 -22 -67z m77 24 c14 -17 4 -27 -26 -27 -16 0 -23 6 -23 20 0 23
31 27 49 7z m8 -53 c-3 -3 -12 -4 -19 -1 -8 3 -5 6 6 6 11 1 17 -2 13 -5z"/>
<path d="M5691 6711 c-9 -6 -10 -11 -2 -15 6 -4 9 -12 6 -17 -10 -16 -32 -10
-38 11 -3 11 -12 20 -21 20 -13 0 -16 -12 -16 -64 0 -74 15 -96 23 -35 3 22 8
43 11 47 12 12 29 -18 30 -53 1 -30 4 -35 21 -33 22 3 33 33 34 101 1 39 -2
47 -16 47 -10 0 -24 -4 -32 -9z"/>
<path d="M4286 6654 c-7 -19 4 -24 51 -24 30 0 43 4 43 14 0 18 -88 27 -94 10z"/>
<path d="M4290 6585 c0 -20 46 -30 76 -16 39 17 28 31 -26 31 -37 0 -50 -4
-50 -15z"/>
<path d="M3651 6140 l-1145 -5 -28 -125 c-83 -374 -92 -626 -35 -1000 l22
-144 2643 -4 c1453 -1 2642 -2 2642 0 0 2 7 41 15 88 56 305 59 660 9 905 -29
143 -66 266 -84 275 -21 11 -2398 17 -4039 10z m1354 -90 c3 -5 15 -10 26 -10
10 0 19 -6 18 -12 0 -16 -108 -105 -157 -130 -38 -19 -97 -24 -106 -9 -3 5 1
29 10 55 14 39 19 45 38 40 28 -7 85 18 115 50 26 27 46 33 56 16z m-515 -51
c0 -33 -83 -96 -150 -112 -22 -6 -62 7 -50 15 3 2 30 22 60 45 70 52 140 78
140 52z m-1339 -149 c38 -11 93 -45 149 -93 l33 -28 -24 -17 c-13 -9 -40 -31
-60 -49 -35 -32 -37 -32 -53 -14 -29 32 -71 43 -149 39 -63 -3 -80 -8 -111
-32 -47 -35 -69 -84 -69 -156 -1 -96 52 -166 140 -185 47 -10 138 12 173 42
34 28 40 27 113 -38 l38 -34 -72 -52 c-86 -64 -158 -88 -238 -80 -167 18 -288
122 -321 277 -15 69 -9 124 20 203 55 148 167 226 325 227 39 0 86 -5 106 -10z
m609 -261 l-1 -271 155 -2 156 -1 0 -84 c0 -72 -2 -82 -16 -77 -9 3 -117 6
-241 6 l-226 0 4 343 4 342 65 6 c36 3 73 6 83 7 16 2 18 -15 17 -269z m2330
-79 l0 -350 -64 0 -64 0 -95 118 c-90 111 -257 282 -275 282 -5 0 -7 -90 -5
-200 l4 -200 -79 0 -79 0 -7 331 c-4 182 -10 338 -13 345 -4 11 10 14 67 14
l72 0 97 -102 c54 -57 136 -144 184 -194 85 -90 85 -90 90 -60 2 16 2 103 -1
192 l-5 163 84 4 c46 1 85 4 87 5 1 1 2 -155 2 -348z m482 -5 l-2 -350 -80 0
-80 0 0 351 0 351 83 0 82 -1 -3 -351z m713 315 c7 -19 61 -152 120 -295 142
-348 149 -365 144 -369 -2 -2 -43 -2 -91 1 l-87 6 -18 60 c-9 32 -23 62 -31
64 -7 3 -78 2 -157 -2 l-144 -7 -23 -64 c-16 -44 -27 -63 -36 -59 -8 3 -45 5
-83 5 l-69 0 16 38 c9 20 34 82 54 137 21 55 76 181 122 280 47 99 90 194 96
210 12 30 13 30 93 30 l81 0 13 -35z m-2823 -217 c1 -137 2 -293 0 -348 l-3
-100 -76 3 -75 4 4 328 c1 181 7 332 11 337 5 4 34 11 65 14 31 3 60 7 64 8 3
0 8 -110 10 -246z m643 -25 c-5 -240 -7 -266 -26 -305 -34 -71 -107 -113 -195
-113 -66 0 -87 15 -131 93 -46 82 -60 152 -38 184 10 15 18 74 25 199 10 174
16 200 45 190 16 -5 10 -203 -10 -290 -21 -92 -12 -142 32 -175 34 -27 92 -27
127 0 l26 20 0 153 c0 84 3 187 6 229 l7 77 68 0 69 0 -5 -262z"/>
<path d="M7170 5627 c0 -7 -16 -48 -35 -92 -19 -44 -35 -86 -35 -92 0 -10 24
-13 85 -13 55 0 85 4 85 11 0 19 -83 199 -91 199 -5 0 -9 -6 -9 -13z"/>
<path d="M2935 4752 c-225 -1 -413 -6 -417 -10 -10 -10 41 -186 88 -300 97
-236 279 -539 439 -732 296 -358 638 -614 1046 -784 192 -79 224 -90 370 -127
186 -46 404 -71 629 -72 622 -3 1192 195 1690 587 104 82 288 262 383 374 215
257 393 576 501 897 20 61 41 118 47 128 6 11 8 22 4 25 -7 7 -131 10 -572 15
l-291 3 -23 -76 c-23 -80 -102 -241 -165 -336 -165 -252 -440 -497 -710 -632
-222 -112 -400 -168 -627 -198 -200 -27 -438 -9 -642 48 -359 99 -604 238
-881 501 -175 165 -346 419 -419 622 -10 28 -23 55 -29 60 -7 6 -158 9 -421 7z
m106 -281 c33 -33 36 -56 13 -89 -15 -22 -66 -30 -90 -14 -36 24 -40 84 -8
116 23 24 52 19 85 -13z m4223 -3 c51 -48 34 -98 -35 -100 -38 -1 -82 41 -72
70 19 54 65 67 107 30z m-341 -219 c12 -7 64 -43 115 -81 51 -38 108 -78 127
-90 19 -11 35 -24 35 -29 0 -5 -15 -18 -32 -29 -28 -17 -51 -20 -152 -20
l-120 0 35 -36 c18 -19 55 -49 82 -66 52 -33 56 -42 28 -58 -30 -16 -47 -12
-103 22 -66 40 -248 178 -248 187 0 16 165 51 241 51 l37 0 -71 69 c-41 40
-67 73 -63 80 9 14 61 14 89 0z m-3520 -38 c61 -40 107 -116 107 -177 0 -19
-56 -71 -66 -62 -2 3 -9 31 -15 64 -6 35 -20 69 -32 82 -19 21 -29 23 -80 20
-49 -4 -63 -9 -90 -36 -26 -27 -32 -40 -32 -76 0 -66 55 -116 106 -97 22 7 22
8 -6 33 -30 28 -28 60 5 78 16 8 21 6 31 -12 6 -13 29 -45 51 -71 46 -56 44
-62 -35 -102 -66 -32 -94 -32 -148 5 -62 41 -90 87 -96 158 -5 50 -2 66 17
100 21 37 82 90 120 105 37 14 135 7 163 -12z m267 -311 c0 -5 45 -48 99 -96
l100 -86 -21 -29 c-25 -34 -31 -31 -114 41 -31 28 -62 50 -68 50 -6 0 -19 -11
-28 -24 -17 -24 -17 -25 33 -71 l51 -48 -16 -34 -16 -34 -57 50 c-31 28 -63
51 -69 51 -7 0 -20 -10 -29 -22 -15 -22 -14 -24 23 -55 22 -18 51 -48 66 -68
l27 -35 -21 -29 -20 -30 -52 47 c-28 26 -76 70 -106 98 l-55 51 50 54 c155
168 193 211 193 220 0 5 7 9 15 9 8 0 15 -4 15 -10z m3051 -89 c55 -34 79 -81
79 -150 0 -66 -18 -108 -63 -148 -83 -72 -227 -47 -288 50 -28 45 -24 183 6
217 40 46 76 60 151 60 60 0 77 -4 115 -29z m-2677 -236 c9 -17 23 -76 31
-131 15 -92 21 -114 28 -103 1 2 20 42 42 87 22 46 43 86 48 89 10 6 77 -36
77 -48 0 -18 -52 -114 -109 -199 -31 -47 -59 -93 -63 -103 -6 -14 -12 -16 -27
-8 -50 27 -63 64 -86 244 -3 26 -9 47 -13 47 -4 0 -30 -42 -57 -94 l-50 -94
-37 30 -37 29 38 62 c21 34 64 108 95 165 l58 104 23 -22 c13 -13 31 -37 39
-55z m2222 7 c11 -20 53 -90 92 -154 40 -64 72 -121 72 -125 0 -13 -73 -38
-77 -27 -2 5 -44 72 -93 149 l-88 140 31 27 c18 15 34 27 37 28 3 0 14 -17 26
-38z m-193 -108 c10 -19 15 -39 12 -43 -2 -5 -23 -11 -45 -15 -31 -5 -40 -11
-40 -26 0 -22 70 -167 101 -212 11 -14 19 -28 19 -31 0 -6 -72 -49 -75 -45 -1
2 -31 60 -66 130 -35 71 -70 128 -77 128 -7 0 -24 -8 -39 -17 -25 -17 -26 -16
-49 11 -13 15 -24 33 -24 41 0 7 40 29 93 49 50 20 103 43 117 51 39 22 55 18
73 -21z m-1627 -63 c5 -5 57 -21 116 -36 106 -28 108 -28 101 -54 -13 -55 -34
-58 -136 -20 l-48 17 -10 -24 c-14 -38 -13 -39 49 -61 40 -14 58 -26 60 -40 5
-35 -18 -44 -79 -28 -49 13 -55 13 -66 -2 -17 -22 -17 -53 -1 -53 7 0 35 -9
63 -19 27 -11 59 -22 69 -26 15 -4 17 -8 8 -17 -7 -7 -12 -25 -12 -40 0 -15
-1 -28 -3 -28 -1 0 -47 16 -102 35 -55 19 -110 35 -123 35 -12 0 -25 6 -28 13
-2 7 21 85 51 173 31 87 58 165 61 172 4 14 16 16 30 3z m1242 -87 c24 -10 32
-19 32 -38 0 -30 -26 -41 -64 -26 -44 16 -66 12 -97 -19 -24 -25 -29 -38 -29
-78 0 -41 5 -54 29 -77 42 -41 98 -46 138 -12 36 30 45 32 79 10 l25 -17 -28
-30 c-35 -37 -98 -67 -143 -67 -51 0 -113 32 -145 75 -56 72 -41 207 29 260
61 47 97 51 174 19z m-765 -20 c89 -8 127 -27 150 -77 29 -60 16 -119 -33
-156 -30 -21 -30 -22 -15 -58 9 -21 22 -45 30 -53 23 -25 18 -30 -28 -30 -42
0 -45 2 -62 41 -21 45 -49 69 -81 69 -24 0 -34 -17 -34 -61 0 -29 -1 -29 -55
-29 -30 0 -55 2 -55 4 0 3 4 16 9 29 9 24 42 202 56 300 5 41 8 46 24 38 10
-6 52 -13 94 -17z m367 -43 c13 -51 41 -311 34 -322 -3 -5 -25 -9 -50 -9 -43
0 -44 1 -44 33 0 47 -19 267 -26 305 -6 32 -6 32 35 32 38 0 41 -2 51 -39z"/>
<path d="M6560 3747 c-44 -22 -64 -92 -40 -138 23 -41 94 -60 144 -38 28 13
56 64 56 101 -1 65 -93 109 -160 75z"/>
<path d="M4887 3224 c-4 -4 -7 -29 -7 -56 l0 -48 60 0 60 0 0 40 c0 27 -5 42
-18 49 -26 14 -86 23 -95 15z"/>
<path d="M4997 4516 c1 -17 4 -68 6 -113 l4 -83 -124 0 -123 0 0 -79 c0 -43 3
-92 6 -109 l6 -31 114 6 114 6 0 -131 0 -132 103 0 103 0 -4 131 -4 132 116
-5 117 -4 -3 110 -3 111 -113 -4 -114 -3 7 113 7 114 -109 1 -109 1 3 -31z"/>
<path d="M6288 4293 c6 -2 18 -2 25 0 6 3 1 5 -13 5 -14 0 -19 -2 -12 -5z"/>
<path d="M8530 5376 c0 -8 5 -18 10 -21 6 -3 10 3 10 14 0 12 -4 21 -10 21 -5
0 -10 -6 -10 -14z"/>
<path d="M5202 2024 c-12 -8 -22 -26 -22 -39 0 -13 -4 -27 -10 -30 -17 -11
-11 -47 12 -66 25 -23 51 -24 68 -4 9 11 16 12 30 2 24 -14 37 -3 20 18 -11
13 -10 19 5 35 19 21 16 23 -25 21 -14 0 -19 2 -12 5 18 8 15 38 -6 57 -23 21
-32 21 -60 1z m46 -37 c2 -10 -3 -17 -12 -17 -10 0 -16 9 -16 21 0 24 23 21
28 -4z m-8 -57 c-20 -13 -50 -13 -50 0 0 6 15 10 33 10 24 0 28 -3 17 -10z"/>
<path d="M3510 2016 c0 -9 12 -16 28 -18 26 -3 27 -6 30 -60 4 -77 22 -75 22
2 0 57 1 60 25 60 16 0 25 6 25 15 0 12 -14 15 -65 15 -50 0 -65 -3 -65 -14z"/>
<path d="M3750 1955 l0 -75 55 0 c30 0 55 5 55 10 0 6 -16 10 -35 10 -28 0
-35 4 -35 20 0 11 5 20 10 20 6 0 10 -4 10 -10 0 -5 9 -10 20 -10 13 0 20 7
20 20 0 16 -7 20 -30 20 -20 0 -30 5 -30 15 0 8 9 15 19 15 30 0 51 11 51 26
0 10 -15 14 -55 14 l-55 0 0 -75z"/>
<path d="M3990 1954 c0 -56 3 -75 13 -72 6 3 14 22 17 43 l5 39 39 -38 c48
-45 58 -38 64 44 4 51 2 60 -12 60 -17 0 -20 -5 -31 -54 l-6 -29 -30 42 c-47
63 -59 55 -59 -35z"/>
<path d="M4237 2024 c-11 -12 4 -24 29 -24 24 0 25 -2 22 -56 -2 -39 1 -58 10
-61 9 -3 12 11 12 51 0 51 2 57 26 66 14 6 22 14 19 20 -7 11 -108 14 -118 4z"/>
<path d="M4472 1958 c2 -46 7 -73 16 -76 9 -3 12 16 12 72 0 62 -3 76 -15 76
-13 0 -15 -12 -13 -72z"/>
<path d="M4636 1999 c-34 -40 -33 -65 5 -100 23 -21 38 -28 53 -23 29 9 46 24
46 40 0 18 -10 17 -34 -1 -18 -13 -22 -13 -43 7 -13 12 -23 27 -23 35 0 20 47
46 75 41 28 -6 36 16 9 26 -34 13 -63 5 -88 -25z"/>
<path d="M5507 2023 c-4 -3 -7 -19 -7 -34 0 -23 6 -30 35 -40 55 -20 40 -41
-22 -31 -37 5 -45 -11 -14 -28 32 -17 66 -11 91 15 27 29 17 49 -30 59 -41 8
-40 36 0 36 32 0 40 14 14 24 -21 8 -59 8 -67 -1z"/>
<path d="M5729 2028 c0 -2 -2 -24 -3 -49 -1 -34 2 -45 11 -42 7 3 11 9 8 13
-3 5 9 11 27 13 l33 4 -32 1 c-26 2 -33 6 -33 23 0 18 5 21 35 17 22 -2 34 0
32 6 -3 10 -75 22 -78 14z"/>
<path d="M5930 1953 c0 -58 3 -73 15 -73 9 0 15 9 15 25 0 18 5 25 20 25 11 0
27 -11 36 -25 16 -25 44 -34 44 -15 0 6 -4 10 -10 10 -5 0 -10 9 -10 19 0 11
5 23 10 26 15 10 12 51 -6 66 -9 7 -38 13 -65 14 l-49 1 0 -73z m94 30 c9 -23
-7 -35 -38 -27 -16 4 -26 13 -26 25 0 25 55 27 64 2z"/>
<path d="M6197 2023 c-4 -3 -7 -37 -7 -75 0 -61 2 -68 20 -68 18 0 20 7 20 75
0 56 -3 75 -13 75 -8 0 -17 -3 -20 -7z"/>
<path d="M6363 2023 c-18 -6 -16 -68 2 -103 28 -54 80 -65 120 -25 21 20 25
34 25 80 0 48 -3 55 -20 55 -16 0 -19 -8 -22 -56 -4 -68 -24 -90 -57 -60 -15
14 -21 31 -21 62 0 44 -6 55 -27 47z"/>
<path d="M6627 2024 c-3 -4 7 -23 23 -43 17 -19 30 -45 30 -57 0 -31 10 -55
21 -48 5 3 9 23 9 44 0 26 8 48 25 68 14 17 25 33 25 36 0 14 -23 4 -46 -21
-17 -19 -27 -24 -31 -15 -12 30 -42 49 -56 36z"/>
<path d="M4900 1995 c0 -9 -9 -35 -20 -57 -24 -50 -25 -59 -5 -52 8 3 20 22
27 42 l12 37 6 -35 c4 -29 10 -36 33 -38 29 -4 37 12 12 25 -8 5 -21 26 -28
48 -14 40 -37 59 -37 30z"/>
<path d="M3123 1969 c-44 -13 -48 -24 -17 -48 32 -25 71 -27 102 -5 27 19 28
40 3 54 -23 12 -44 12 -88 -1z"/>
<path d="M6987 1964 c-36 -19 -31 -34 18 -58 38 -19 39 -19 74 0 46 25 49 39
12 58 -37 20 -68 20 -104 0z"/>
<path d="M5770 1926 c0 -9 5 -16 10 -16 6 0 10 4 10 9 0 6 -4 13 -10 16 -5 3
-10 -1 -10 -9z"/>
<path d="M5760 1896 c0 -2 14 -6 30 -8 17 -3 30 -1 30 4 0 4 -13 8 -30 8 -16
0 -30 -2 -30 -4z"/>
<path d="M4164 1700 c-28 -11 -74 -67 -74 -92 0 -34 63 -88 102 -88 42 0 58
15 58 55 0 35 -15 55 -41 55 -26 0 -33 -19 -15 -39 21 -23 20 -31 -4 -31 -23
0 -60 33 -60 55 0 8 9 24 21 36 16 16 28 20 55 14 34 -6 45 4 22 22 -22 17
-42 21 -64 13z"/>
<path d="M5021 1627 c-44 -89 -49 -107 -28 -107 17 0 34 30 42 74 9 48 20 45
34 -8 6 -26 21 -52 33 -60 33 -23 44 -5 29 46 -13 42 -58 138 -65 138 -2 0
-22 -37 -45 -83z"/>
<path d="M5830 1669 l0 -40 -37 3 c-36 3 -38 5 -37 36 2 24 -2 32 -15 32 -14
0 -15 -11 -11 -87 4 -69 8 -88 20 -88 10 0 15 11 15 35 0 32 3 35 33 38 31 3
32 3 32 -38 0 -34 3 -41 18 -38 14 3 17 17 20 96 3 87 2 92 -18 92 -17 0 -20
-6 -20 -41z"/>
<path d="M3670 1686 c0 -8 12 -17 26 -20 25 -7 26 -9 22 -74 -2 -54 0 -67 12
-67 12 0 16 15 18 68 3 64 4 67 27 67 18 0 25 5 25 20 0 18 -7 20 -65 20 -49
0 -65 -3 -65 -14z"/>
<path d="M3903 1658 c-11 -24 -23 -56 -27 -73 -4 -16 -9 -38 -12 -47 -3 -12 0
-18 9 -18 8 0 17 9 20 20 4 16 14 20 45 20 31 0 41 -4 45 -20 3 -11 12 -20 21
-20 20 0 20 -4 -3 62 -26 77 -49 118 -65 118 -8 0 -23 -19 -33 -42z m40 -15
c2 -10 8 -26 12 -35 6 -15 2 -18 -20 -18 -21 0 -26 4 -21 16 3 9 6 24 6 35 0
24 16 25 23 2z"/>
<path d="M4358 1613 c-2 -48 -3 -89 -3 -90 0 0 30 1 68 4 88 7 93 43 6 43 -28
0 -29 1 -29 51 0 50 1 51 25 46 20 -3 25 -1 23 12 -2 11 -16 17 -45 19 l-41 3
-4 -88z"/>
<path d="M4590 1609 c0 -81 2 -90 18 -87 14 3 17 17 20 91 3 82 2 87 -18 87
-19 0 -20 -6 -20 -91z"/>
<path d="M4748 1618 c-4 -78 3 -105 24 -92 4 3 8 29 8 57 l1 52 22 -25 c12
-14 32 -39 44 -55 14 -20 25 -27 32 -20 14 15 17 158 3 163 -8 2 -12 -14 -12
-50 l-1 -53 -47 53 c-26 28 -52 52 -58 52 -8 0 -13 -30 -16 -82z"/>
<path d="M5317 1693 c-4 -3 -7 -41 -7 -84 0 -85 6 -93 60 -82 39 7 42 13 34
63 -7 40 -8 42 -35 36 -24 -5 -29 -2 -29 14 0 16 7 20 35 20 21 0 35 -5 35
-12 0 -7 5 -5 11 5 9 14 7 22 -8 32 -19 15 -84 20 -96 8z m62 -92 c12 -8 12
-12 2 -25 -20 -24 -41 -19 -41 9 0 26 14 31 39 16z"/>
<path d="M5967 1618 c-3 -45 -3 -86 -1 -90 3 -5 32 -8 65 -8 52 0 59 2 59 20
0 17 -7 20 -45 20 -38 0 -45 3 -45 20 0 17 7 20 41 20 52 0 48 24 -4 28 -28 2
-37 8 -37 21 0 16 6 18 45 13 36 -4 45 -1 45 10 0 10 -14 18 -37 22 -82 13
-80 15 -86 -76z"/>
<path d="M6170 1690 c0 -5 5 -10 10 -10 14 0 13 -67 -1 -76 -7 -4 -7 -9 -1
-13 5 -3 12 -16 16 -28 6 -19 4 -23 -16 -23 -18 0 -20 -2 -8 -10 8 -5 25 -10
38 -10 17 0 22 6 22 25 0 33 15 32 42 -5 12 -16 30 -30 40 -30 23 0 23 5 -2
30 -24 24 -25 43 -5 60 23 19 19 66 -7 84 -25 18 -128 22 -128 6z m79 -31 c39
-14 39 -43 0 -47 -23 -3 -27 1 -31 27 -3 17 -4 31 -3 31 1 0 16 -5 34 -11z"/>
<path d="M6421 1611 l1 -91 70 0 c61 0 69 2 66 18 -2 10 -14 18 -28 20 -52 6
-70 13 -70 28 0 12 9 15 42 12 34 -2 43 0 46 15 3 14 -4 17 -42 17 -37 0 -46
3 -46 18 0 15 7 17 41 14 35 -4 71 10 58 22 -2 2 -35 7 -72 11 l-68 7 2 -91z"/>
</g>
</svg>
